<svg width="1024" height="500" viewBox="0 0 1024 500" xmlns="http://www.w3.org/2000/svg" font-family="'Pretendard', 'Malgun Gothic', -apple-system, sans-serif"><rect width="1024" height="500" fill="#F5EFE8"/><ellipse cx="800" cy="250" rx="300" ry="300" fill="#EFE3CF"/><ellipse cx="800" cy="250" rx="232" ry="170" fill="none" stroke="#D99A58" stroke-width="2" stroke-dasharray="2 9" stroke-linecap="round"/><circle cx="800" cy="250" r="150" fill="#FBF7F1" stroke="#E8A55A" stroke-width="2.5"/><ellipse cx="800" cy="288" rx="46" ry="38" fill="#E8A55A"/><circle cx="760" cy="240" r="17" fill="#E8A55A"/><circle cx="789" cy="222" r="17" fill="#E8A55A"/><circle cx="819" cy="223" r="17" fill="#E8A55A"/><circle cx="846" cy="243" r="16" fill="#E8A55A"/><circle cx="800" cy="80" r="11" fill="#C98B45"/><circle cx="800" cy="80" r="4" fill="#FBF7F1"/><circle cx="1006" cy="282" r="11" fill="#C98B45"/><circle cx="1006" cy="282" r="4" fill="#FBF7F1"/><circle cx="648" cy="346" r="11" fill="#C98B45"/><circle cx="648" cy="346" r="4" fill="#FBF7F1"/><path d="M958 150 l24 -9 -7 23 -10 -4 -7 -10z" fill="#8FA68C"/><rect x="80" y="120" width="74" height="74" rx="20" fill="#E8A55A"/><path d="M104 178 v-44 h22 a12 12 0 0 1 0 24 h-22" fill="none" stroke="#FBF7F1" stroke-width="8" stroke-linecap="round" stroke-linejoin="round"/><text x="170" y="175" font-size="56" font-weight="600" fill="#2A2620" letter-spacing="1">PETMOVE</text><text x="82" y="258" font-size="30" font-weight="600" fill="#2A2620">반려동물과 함께하는 해외여행</text><text x="82" y="304" font-size="22" fill="#6B6457">복잡한 검역·서류 준비를 앱 하나로,</text><text x="82" y="336" font-size="22" fill="#6B6457">단계별로 안내해 드려요.</text><g font-size="18" font-weight="500"><rect x="82" y="372" width="86" height="38" rx="19" fill="#FBF7F1" stroke="#E0D4C2"/><text x="125" y="397" text-anchor="middle" fill="#6B6457">일본</text><rect x="178" y="372" width="86" height="38" rx="19" fill="#FBF7F1" stroke="#E0D4C2"/><text x="221" y="397" text-anchor="middle" fill="#6B6457">태국</text><rect x="274" y="372" width="100" height="38" rx="19" fill="#FBF7F1" stroke="#E0D4C2"/><text x="324" y="397" text-anchor="middle" fill="#6B6457">필리핀</text><rect x="384" y="372" width="86" height="38" rx="19" fill="#FBF7F1" stroke="#E0D4C2"/><text x="427" y="397" text-anchor="middle" fill="#6B6457">호주</text><rect x="480" y="372" width="58" height="38" rx="19" fill="#E8A55A"/><text x="509" y="397" text-anchor="middle" fill="#FBF7F1">···</text></g></svg>